<?xml version="1.0" encoding="UTF-8" standalone="no"?>
<svg
   xmlns:dc="http://purl.org/dc/elements/1.1/"
   xmlns:cc="http://creativecommons.org/ns#"
   xmlns:rdf="http://www.w3.org/1999/02/22-rdf-syntax-ns#"
   xmlns:svg="http://www.w3.org/2000/svg"
   xmlns="http://www.w3.org/2000/svg"
   xmlns:sodipodi="http://sodipodi.sourceforge.net/DTD/sodipodi-0.dtd"
   xmlns:inkscape="http://www.inkscape.org/namespaces/inkscape"
   version="1.1"
   x="0px"
   y="0px"
   viewBox="0 0 71.991249 71.992996"
   enable-background="new 0 0 100 100"
   xml:space="preserve"
   id="svg8"
   sodipodi:docname="key.svg"
   width="71.991249"
   height="71.992996"
   inkscape:version="0.92.3 (2405546, 2018-03-11)"><metadata
     id="metadata14"><rdf:RDF><cc:Work
         rdf:about=""><dc:format>image/svg+xml</dc:format><dc:type
           rdf:resource="http://purl.org/dc/dcmitype/StillImage" /><dc:title></dc:title></cc:Work></rdf:RDF></metadata><defs
     id="defs12" /><sodipodi:namedview
     pagecolor="#ffffff"
     bordercolor="#666666"
     borderopacity="1"
     objecttolerance="10"
     gridtolerance="10"
     guidetolerance="10"
     inkscape:pageopacity="0"
     inkscape:pageshadow="2"
     inkscape:window-width="1920"
     inkscape:window-height="1017"
     id="namedview10"
     showgrid="false"
     inkscape:zoom="1.888"
     inkscape:cx="151.72656"
     inkscape:cy="78.369381"
     inkscape:window-x="-8"
     inkscape:window-y="-8"
     inkscape:window-maximized="1"
     inkscape:current-layer="svg8"
     fit-margin-top="0"
     fit-margin-left="0"
     fit-margin-right="0"
     fit-margin-bottom="0" />
          <defs>
     <linearGradient id="grad1" x1="0%" y1="100%" x2="0%" y2="0%">
      <stop offset="0%" style="stop-color:rgb(64,31,166);stop-opacity:1" />
      <stop offset="100%" style="stop-color:rgb(242,43,139);stop-opacity:1" />
    </linearGradient>
  </defs>
      <path fill="url(#grad1)"
     d="m 23.65475,29.091 c -1.539,0 -2.787,1.248 -2.79,2.782 v 6.347 c 0.003,1.53 1.251,2.778 2.784,2.779 1.533,0 2.78,-1.249 2.78,-2.783 V 31.87 c 10e-4,-1.532 -1.244,-2.779 -2.774,-2.779 z m 46.535,-11.413 C 68.66975,9.519 62.26375,3.28 54.25875,1.759 48.17475,0.561 42.00875,0 36.00575,0 c -6.165,0 -12.33,0.561 -18.413,1.759 -8.166,1.521 -14.33,7.84 -15.852,15.839 -2.321,12.158 -2.321,24.558 0,36.636 1.521,8.24 7.845,14.399 15.852,15.92 6.083,1.278 12.248,1.839 18.413,1.839 6.164,0 12.247,-0.561 18.332,-1.76 8.167,-1.6 14.332,-7.839 15.852,-15.918 2.402,-12.16 2.402,-24.559 0,-36.637 z m -16.063,26.514 c 0,0.828 -0.672,1.5 -1.5,1.5 -0.828,0 -1.5,-0.672 -1.5,-1.5 v -7.723 l -3.404,10e-4 0.002,7.931 c 0,0.828 -0.671,1.5 -1.5,1.5 -0.828,0 -1.5,-0.671 -1.5,-1.5 l -0.002,-7.931 -3.537,10e-4 v 5.521 c 0,0.828 -0.672,1.5 -1.5,1.5 -0.828,0 -1.5,-0.672 -1.5,-1.5 v -5.521 l -8.756,0.002 v 1.742 c 0,3.188 -2.594,5.783 -5.781,5.783 h -0.001 c -3.184,-0.003 -5.777,-2.594 -5.782,-5.776 v -6.353 c 0.005,-3.188 2.6,-5.779 5.783,-5.779 3.191,0 5.781,2.593 5.781,5.779 v 1.604 l 23.197,-0.004 c 0.397,0 0.779,0.158 1.061,0.439 0.282,0.281 0.439,0.663 0.439,1.061 z"
     id="path2"
     inkscape:connector-curvature="0" /></svg>